<svg xmlns="http://www.w3.org/2000/svg" width="1200" height="900" viewBox="0 0 1200 900" role="img" aria-labelledby="title desc">
  <title id="title">Lumiere hydroponie appartement</title>
  <desc id="desc">Illustration d'un coin hydroponique d'appartement avec fenetre, lampe horticole et jeunes plantes bien eclairees.</desc>
  <defs>
    <linearGradient id="bg" x1="0%" y1="0%" x2="100%" y2="100%">
      <stop offset="0%" stop-color="#f8fffd"/>
      <stop offset="100%" stop-color="#e6f8fb"/>
    </linearGradient>
    <linearGradient id="lamp" x1="0%" y1="0%" x2="0%" y2="100%">
      <stop offset="0%" stop-color="#fff5c6"/>
      <stop offset="100%" stop-color="#ffd977"/>
    </linearGradient>
    <linearGradient id="leaf" x1="0%" y1="0%" x2="100%" y2="100%">
      <stop offset="0%" stop-color="#6dde9f"/>
      <stop offset="100%" stop-color="#17845d"/>
    </linearGradient>
    <filter id="shadow" x="-20%" y="-20%" width="140%" height="160%">
      <feDropShadow dx="0" dy="18" stdDeviation="18" flood-color="#13444b" flood-opacity="0.14"/>
    </filter>
  </defs>
  <rect width="1200" height="900" fill="url(#bg)"/>
  <circle cx="180" cy="150" r="150" fill="#e4fbf5"/>
  <circle cx="1030" cy="120" r="135" fill="#edfaff"/>
  <rect x="0" y="650" width="1200" height="250" fill="#f8fbfc"/>
  <g opacity="0.75">
    <rect x="122" y="106" width="278" height="232" rx="24" fill="#ffffff" stroke="#cfeef0" stroke-width="5"/>
    <line x1="261" y1="106" x2="261" y2="338" stroke="#d9f1f3" stroke-width="4"/>
    <line x1="122" y1="222" x2="400" y2="222" stroke="#d9f1f3" stroke-width="4"/>
  </g>
  <g filter="url(#shadow)">
    <rect x="250" y="230" width="700" height="380" rx="40" fill="#fbffff"/>
    <rect x="250" y="230" width="700" height="380" rx="40" fill="none" stroke="#d3ece8" stroke-width="4"/>
  </g>
  <rect x="318" y="540" width="566" height="38" rx="19" fill="#d5e4e9"/>
  <rect x="360" y="578" width="24" height="112" rx="12" fill="#b3c9cf"/>
  <rect x="818" y="578" width="24" height="112" rx="12" fill="#b3c9cf"/>
  <g filter="url(#shadow)">
    <rect x="414" y="174" width="384" height="54" rx="27" fill="#15353c"/>
    <path d="M456 228h300l-80 156H536z" fill="url(#lamp)" opacity="0.52"/>
    <path d="M516 228h180l-46 134H562z" fill="url(#lamp)" opacity="0.74"/>
  </g>
  <g filter="url(#shadow)">
    <rect x="360" y="420" width="480" height="82" rx="34" fill="#17343a"/>
    <rect x="382" y="438" width="436" height="42" rx="21" fill="#2fb8c7"/>
    <circle cx="440" cy="420" r="22" fill="#ffffff" stroke="#ccebe7" stroke-width="4"/>
    <circle cx="540" cy="420" r="22" fill="#ffffff" stroke="#ccebe7" stroke-width="4"/>
    <circle cx="640" cy="420" r="22" fill="#ffffff" stroke="#ccebe7" stroke-width="4"/>
    <circle cx="740" cy="420" r="22" fill="#ffffff" stroke="#ccebe7" stroke-width="4"/>
  </g>
  <g fill="url(#leaf)">
    <path d="M428 392c-28-38-13-76 18-100 10 42 10 70-18 100z"/>
    <path d="M452 394c2-44 28-72 57-78-3 36-16 62-57 78z"/>
    <path d="M528 392c-24-32-11-67 17-90 8 37 8 62-17 90z"/>
    <path d="M550 395c2-38 24-64 50-68-3 31-14 54-50 68z"/>
    <path d="M628 392c-26-34-12-70 18-94 9 40 8 66-18 94z"/>
    <path d="M652 395c2-40 25-66 53-72-3 33-15 57-53 72z"/>
    <path d="M728 392c-24-30-11-64 16-86 8 35 8 59-16 86z"/>
    <path d="M750 394c2-35 22-59 46-63-3 28-13 49-46 63z"/>
  </g>
  <g fill="#16343a">
    <text x="184" y="780" font-family="Manrope, 'Segoe UI', Arial, sans-serif" font-size="54" font-weight="800" letter-spacing="-1.6">Lumiere hydroponie appartement</text>
    <text x="186" y="823" font-family="Manrope, 'Segoe UI', Arial, sans-serif" font-size="24" font-weight="600" fill="#3b7d85">fenetre, lampe, distance et regularite pour bien debuter</text>
  </g>
</svg>
