<svg xmlns="http://www.w3.org/2000/svg" width="1200" height="900" viewBox="0 0 1200 900" role="img" aria-labelledby="title desc">
  <title id="title">Nettoyer un systeme hydroponique</title>
  <desc id="desc">Illustration d'un reservoir hydroponique propre avec eponge, eau claire et routine simple de nettoyage.</desc>
  <defs>
    <linearGradient id="bg" x1="0%" y1="0%" x2="100%" y2="100%">
      <stop offset="0%" stop-color="#f8fffe"/>
      <stop offset="100%" stop-color="#e6f8f7"/>
    </linearGradient>
    <linearGradient id="water" x1="0%" y1="0%" x2="0%" y2="100%">
      <stop offset="0%" stop-color="#8fe6ee"/>
      <stop offset="100%" stop-color="#35b7c3"/>
    </linearGradient>
    <linearGradient id="leaf" x1="0%" y1="0%" x2="100%" y2="100%">
      <stop offset="0%" stop-color="#69da9f"/>
      <stop offset="100%" stop-color="#177d5a"/>
    </linearGradient>
    <filter id="shadow" x="-20%" y="-20%" width="140%" height="160%">
      <feDropShadow dx="0" dy="18" stdDeviation="18" flood-color="#13444b" flood-opacity="0.14"/>
    </filter>
  </defs>
  <rect width="1200" height="900" fill="url(#bg)"/>
  <circle cx="188" cy="146" r="150" fill="#e4fbf5"/>
  <circle cx="1026" cy="126" r="136" fill="#edfaff"/>
  <rect x="0" y="650" width="1200" height="250" fill="#f8fbfc"/>
  <g filter="url(#shadow)">
    <rect x="234" y="230" width="732" height="388" rx="40" fill="#fbffff"/>
    <rect x="234" y="230" width="732" height="388" rx="40" fill="none" stroke="#d0ece8" stroke-width="4"/>
  </g>
  <g filter="url(#shadow)">
    <rect x="300" y="420" width="470" height="132" rx="40" fill="#17343a"/>
    <rect x="328" y="454" width="414" height="66" rx="30" fill="url(#water)"/>
  </g>
  <g fill="url(#leaf)">
    <path d="M392 416c-28-38-14-74 17-97 10 40 10 68-17 97z"/>
    <path d="M416 419c2-42 26-69 54-74-3 34-15 58-54 74z"/>
    <path d="M508 416c-24-32-11-64 17-87 8 35 7 60-17 87z"/>
    <path d="M530 419c2-36 22-60 47-65-3 29-13 50-47 65z"/>
    <path d="M624 416c-24-32-11-64 17-87 8 35 7 60-17 87z"/>
    <path d="M646 419c2-36 22-60 47-65-3 29-13 50-47 65z"/>
  </g>
  <g filter="url(#shadow)">
    <path d="M812 352c34 0 64 22 76 54l18 48c6 16-6 32-24 32H744c-18 0-30-16-24-32l18-48c12-32 42-54 74-54z" fill="#f4c85d"/>
    <rect x="824" y="310" width="92" height="56" rx="18" fill="#ffe08a"/>
    <path d="M902 372c38 20 66 54 78 96" fill="none" stroke="#7cb4bd" stroke-width="28" stroke-linecap="round"/>
    <path d="M972 476c28 0 52 22 52 50v46H900v-26c0-39 32-70 72-70z" fill="#eff7f8"/>
    <circle cx="930" cy="540" r="8" fill="#2fb8c7"/>
    <circle cx="960" cy="560" r="10" fill="#6adbe6"/>
    <circle cx="992" cy="536" r="7" fill="#9beff3"/>
  </g>
  <g fill="#16343a">
    <text x="180" y="780" font-family="Manrope, 'Segoe UI', Arial, sans-serif" font-size="52" font-weight="800" letter-spacing="-1.5">Nettoyer un systeme hydroponique</text>
    <text x="182" y="822" font-family="Manrope, 'Segoe UI', Arial, sans-serif" font-size="24" font-weight="600" fill="#3b7d85">garder un reservoir propre sans routine compliquée</text>
  </g>
</svg>
