<svg xmlns="http://www.w3.org/2000/svg" width="1200" height="900" viewBox="0 0 1200 900" role="img" aria-labelledby="title desc">
  <title id="title">Nutriments hydroponie debutant</title>
  <desc id="desc">Illustration d'une solution nutritive hydroponique simple avec reservoir, bouteille doseuse et repères clairs pour debutant.</desc>
  <defs>
    <linearGradient id="bg" x1="0%" y1="0%" x2="100%" y2="100%">
      <stop offset="0%" stop-color="#f7fffd"/>
      <stop offset="100%" stop-color="#e8f8f6"/>
    </linearGradient>
    <linearGradient id="water" x1="0%" y1="0%" x2="0%" y2="100%">
      <stop offset="0%" stop-color="#8be3ec"/>
      <stop offset="100%" stop-color="#2db2bf"/>
    </linearGradient>
    <linearGradient id="bottle" x1="0%" y1="0%" x2="100%" y2="100%">
      <stop offset="0%" stop-color="#ffffff"/>
      <stop offset="100%" stop-color="#e9f6f3"/>
    </linearGradient>
    <linearGradient id="leaf" x1="0%" y1="0%" x2="100%" y2="100%">
      <stop offset="0%" stop-color="#69da9f"/>
      <stop offset="100%" stop-color="#177d5a"/>
    </linearGradient>
    <filter id="shadow" x="-20%" y="-20%" width="140%" height="160%">
      <feDropShadow dx="0" dy="18" stdDeviation="18" flood-color="#13444b" flood-opacity="0.14"/>
    </filter>
  </defs>
  <rect width="1200" height="900" fill="url(#bg)"/>
  <circle cx="188" cy="148" r="150" fill="#e4fbf5"/>
  <circle cx="1028" cy="128" r="136" fill="#edfaff"/>
  <rect x="0" y="648" width="1200" height="252" fill="#f8fbfc"/>
  <g filter="url(#shadow)">
    <rect x="228" y="236" width="744" height="380" rx="40" fill="#fbffff"/>
    <rect x="228" y="236" width="744" height="380" rx="40" fill="none" stroke="#d0ece8" stroke-width="4"/>
  </g>
  <g filter="url(#shadow)">
    <rect x="308" y="418" width="560" height="118" rx="38" fill="#17343a"/>
    <rect x="338" y="448" width="500" height="56" rx="28" fill="url(#water)"/>
  </g>
  <g filter="url(#shadow)">
    <rect x="736" y="212" width="144" height="180" rx="26" fill="url(#bottle)" stroke="#d8ece8" stroke-width="4"/>
    <rect x="770" y="172" width="76" height="54" rx="18" fill="#17343a"/>
    <rect x="768" y="254" width="80" height="12" rx="6" fill="#b8d7dc"/>
    <rect x="768" y="284" width="80" height="12" rx="6" fill="#b8d7dc"/>
    <rect x="768" y="314" width="80" height="12" rx="6" fill="#b8d7dc"/>
    <path d="M760 396c18-32 39-50 58-50s40 18 58 50c-18 12-36 18-58 18s-40-6-58-18z" fill="url(#water)"/>
  </g>
  <g>
    <circle cx="660" cy="376" r="12" fill="#2fb8c7"/>
    <circle cx="642" cy="404" r="9" fill="#67d9e4"/>
    <circle cx="626" cy="432" r="7" fill="#8ee7ee"/>
  </g>
  <g fill="url(#leaf)">
    <path d="M394 416c-28-38-14-74 17-97 10 40 10 68-17 97z"/>
    <path d="M418 419c2-42 26-69 54-74-3 34-15 58-54 74z"/>
    <path d="M504 416c-22-29-10-61 16-82 8 33 7 56-16 82z"/>
    <path d="M525 419c2-35 21-58 45-62-3 28-12 48-45 62z"/>
    <path d="M614 416c-24-32-11-64 17-87 8 35 7 60-17 87z"/>
    <path d="M636 419c2-36 22-60 47-65-3 29-13 50-47 65z"/>
  </g>
  <g fill="#16343a">
    <text x="182" y="778" font-family="Manrope, 'Segoe UI', Arial, sans-serif" font-size="54" font-weight="800" letter-spacing="-1.6">Nutriments hydroponie debutant</text>
    <text x="184" y="821" font-family="Manrope, 'Segoe UI', Arial, sans-serif" font-size="24" font-weight="600" fill="#3b7d85">comprendre la solution, doser simplement, rester stable</text>
  </g>
</svg>
