<svg xmlns="http://www.w3.org/2000/svg" width="512" height="512" viewBox="24 36 88 100" role="img" aria-labelledby="title desc">
  <title id="title">HydroFacile</title>
  <desc id="desc">Icône HydroFacile avec une goutte d'eau et une pousse, sans fond ni contour.</desc>
  <defs>
    <linearGradient id="brandGradient" x1="0%" y1="0%" x2="100%" y2="100%">
      <stop offset="0%" stop-color="#18a47d"/>
      <stop offset="100%" stop-color="#2bb7c8"/>
    </linearGradient>
  </defs>
  <path d="M70 43c18 23 28 41 28 57 0 19-12 32-30 32S38 119 38 100c0-14 8-30 24-49l8-8z" fill="url(#brandGradient)"/>
  <path d="M70 43c11 12 18 23 22 33-7 6-15 9-24 9-10 0-18-3-25-9 5-11 14-22 27-33z" fill="#eafffb" opacity="0.58"/>
  <path d="M69 60c0 20 9 34 25 44" fill="none" stroke="#0f6865" stroke-width="4" stroke-linecap="round"/>
  <path d="M95 70c-16 0-26 10-30 25 17 1 29-7 34-21l2-4h-6z" fill="#0d7869"/>
</svg>
