<svg xmlns="http://www.w3.org/2000/svg" width="64" height="64" viewBox="0 0 64 64" role="img" aria-labelledby="title">
  <title id="title">HydroFacile</title>
  <defs>
    <linearGradient id="iconGradient" x1="0%" y1="0%" x2="100%" y2="100%">
      <stop offset="0%" stop-color="#18a47d"/>
      <stop offset="100%" stop-color="#2bb7c8"/>
    </linearGradient>
  </defs>
  <rect x="4" y="4" width="56" height="56" rx="18" fill="#eafcf9"/>
  <rect x="4" y="4" width="56" height="56" rx="18" fill="none" stroke="#b8eae3" stroke-width="2"/>
  <path d="M32 13c10 13 16 22 16 32 0 10-7 17-16 17s-16-7-16-17c0-8 5-17 14-28l2-4z" fill="url(#iconGradient)"/>
  <path d="M31 22c0 11 5 18 15 24" fill="none" stroke="#0f6865" stroke-width="3" stroke-linecap="round"/>
  <path d="M46 28c-10 0-17 6-20 16 11 1 19-5 23-14l1-2h-4z" fill="#0d7869"/>
</svg>
