<svg xmlns="http://www.w3.org/2000/svg" width="560" height="152" viewBox="0 0 560 152" role="img" aria-labelledby="title desc">
  <title id="title">HydroFacile</title>
  <desc id="desc">Wordmark HydroFacile avec une goutte et une feuille dans des tons vert et turquoise.</desc>
  <defs>
    <linearGradient id="brandGradient" x1="0%" y1="0%" x2="100%" y2="100%">
      <stop offset="0%" stop-color="#18a47d"/>
      <stop offset="100%" stop-color="#2bb7c8"/>
    </linearGradient>
    <linearGradient id="panelGradient" x1="10%" y1="10%" x2="90%" y2="90%">
      <stop offset="0%" stop-color="#f5fffd"/>
      <stop offset="100%" stop-color="#dff8f5"/>
    </linearGradient>
    <filter id="softShadow" x="-20%" y="-20%" width="140%" height="140%">
      <feDropShadow dx="0" dy="12" stdDeviation="12" flood-color="#0f565e" flood-opacity="0.12"/>
    </filter>
  </defs>

  <g filter="url(#softShadow)">
    <rect x="8" y="16" width="120" height="120" rx="34" fill="url(#panelGradient)"/>
    <rect x="8" y="16" width="120" height="120" rx="34" fill="none" stroke="#bde9e4" stroke-width="2"/>
  </g>

  <path d="M70 43c18 23 28 41 28 57 0 19-12 32-30 32S38 119 38 100c0-14 8-30 24-49l8-8z" fill="url(#brandGradient)"/>
  <path d="M70 43c11 12 18 23 22 33-7 6-15 9-24 9-10 0-18-3-25-9 5-11 14-22 27-33z" fill="#eafffb" opacity="0.58"/>
  <path d="M69 60c0 20 9 34 25 44" fill="none" stroke="#0f6865" stroke-width="4" stroke-linecap="round"/>
  <path d="M95 70c-16 0-26 10-30 25 17 1 29-7 34-21l2-4h-6z" fill="#0d7869"/>

  <g fill="#14373c">
    <text x="154" y="74" font-family="Manrope, 'Segoe UI', Arial, sans-serif" font-size="54" font-weight="800" letter-spacing="-2">HydroFacile</text>
    <text x="156" y="106" font-family="Manrope, 'Segoe UI', Arial, sans-serif" font-size="20" font-weight="600" letter-spacing="1.2" fill="#2d7b84">HYDROPONIE EN APPARTEMENT</text>
  </g>
</svg>
